<svg width="21" height="14" viewBox="0 0 21 14" fill="none" xmlns="http://www.w3.org/2000/svg">
<path d="M16.8874 8.00249H1.7124C1.42907 8.00249 1.19157 7.90666 0.999902 7.71499C0.808236 7.52332 0.712402 7.28582 0.712402 7.00249C0.712402 6.71916 0.808236 6.48166 0.999902 6.28999C1.19157 6.09832 1.42907 6.00249 1.7124 6.00249H16.8874L13.0124 2.10249C12.8291 1.91916 12.7332 1.68999 12.7249 1.41499C12.7166 1.13999 12.8124 0.90249 13.0124 0.70249C13.1957 0.519157 13.4291 0.42749 13.7124 0.42749C13.9957 0.42749 14.2291 0.519157 14.4124 0.70249L20.0124 6.30249C20.1124 6.40249 20.1832 6.51082 20.2249 6.62749C20.2666 6.74416 20.2874 6.86916 20.2874 7.00249C20.2874 7.13582 20.2666 7.26082 20.2249 7.37749C20.1832 7.49416 20.1124 7.60249 20.0124 7.70249L14.4124 13.3025C14.2291 13.4858 13.9999 13.5775 13.7249 13.5775C13.4499 13.5775 13.2124 13.4858 13.0124 13.3025C12.8124 13.1025 12.7124 12.865 12.7124 12.59C12.7124 12.315 12.8124 12.0775 13.0124 11.8775L16.8874 8.00249Z" fill="#25408A"/>
</svg>
