<svg width="21" height="14" viewBox="0 0 21 14" fill="none" xmlns="http://www.w3.org/2000/svg">
<path d="M16.8879 8.00249H1.71289C1.42956 8.00249 1.19206 7.90666 1.00039 7.71499C0.808724 7.52332 0.712891 7.28582 0.712891 7.00249C0.712891 6.71916 0.808724 6.48166 1.00039 6.28999C1.19206 6.09832 1.42956 6.00249 1.71289 6.00249H16.8879L13.0129 2.10249C12.8296 1.91916 12.7337 1.68999 12.7254 1.41499C12.7171 1.13999 12.8129 0.90249 13.0129 0.70249C13.1962 0.519157 13.4296 0.42749 13.7129 0.42749C13.9962 0.42749 14.2296 0.519157 14.4129 0.70249L20.0129 6.30249C20.1129 6.40249 20.1837 6.51082 20.2254 6.62749C20.2671 6.74416 20.2879 6.86916 20.2879 7.00249C20.2879 7.13582 20.2671 7.26082 20.2254 7.37749C20.1837 7.49416 20.1129 7.60249 20.0129 7.70249L14.4129 13.3025C14.2296 13.4858 14.0004 13.5775 13.7254 13.5775C13.4504 13.5775 13.2129 13.4858 13.0129 13.3025C12.8129 13.1025 12.7129 12.865 12.7129 12.59C12.7129 12.315 12.8129 12.0775 13.0129 11.8775L16.8879 8.00249Z" fill="white"/>
</svg>
