<svg width="32" height="32" viewBox="0 0 32 32" fill="none" xmlns="http://www.w3.org/2000/svg">
<path d="M6.66699 21.3359V14.6692C6.66699 14.2914 6.79477 13.9747 7.05033 13.7192C7.30588 13.4636 7.62255 13.3359 8.00033 13.3359C8.3781 13.3359 8.69477 13.4636 8.95033 13.7192C9.20588 13.9747 9.33366 14.2914 9.33366 14.6692V21.3359C9.33366 21.7136 9.20588 22.0303 8.95033 22.2859C8.69477 22.5414 8.3781 22.6692 8.00033 22.6692C7.62255 22.6692 7.30588 22.5414 7.05033 22.2859C6.79477 22.0303 6.66699 21.7136 6.66699 21.3359ZM14.667 21.3359V14.6692C14.667 14.2914 14.7948 13.9747 15.0503 13.7192C15.3059 13.4636 15.6225 13.3359 16.0003 13.3359C16.3781 13.3359 16.6948 13.4636 16.9503 13.7192C17.2059 13.9747 17.3337 14.2914 17.3337 14.6692V21.3359C17.3337 21.7136 17.2059 22.0303 16.9503 22.2859C16.6948 22.5414 16.3781 22.6692 16.0003 22.6692C15.6225 22.6692 15.3059 22.5414 15.0503 22.2859C14.7948 22.0303 14.667 21.7136 14.667 21.3359ZM4.00033 28.0025C3.62255 28.0025 3.30588 27.8747 3.05033 27.6192C2.79477 27.3636 2.66699 27.047 2.66699 26.6692C2.66699 26.2914 2.79477 25.9747 3.05033 25.7192C3.30588 25.4636 3.62255 25.3359 4.00033 25.3359H28.0003C28.3781 25.3359 28.6948 25.4636 28.9503 25.7192C29.2059 25.9747 29.3337 26.2914 29.3337 26.6692C29.3337 27.047 29.2059 27.3636 28.9503 27.6192C28.6948 27.8747 28.3781 28.0025 28.0003 28.0025H4.00033ZM22.667 21.3359V14.6692C22.667 14.2914 22.7948 13.9747 23.0503 13.7192C23.3059 13.4636 23.6225 13.3359 24.0003 13.3359C24.3781 13.3359 24.6948 13.4636 24.9503 13.7192C25.2059 13.9747 25.3337 14.2914 25.3337 14.6692V21.3359C25.3337 21.7136 25.2059 22.0303 24.9503 22.2859C24.6948 22.5414 24.3781 22.6692 24.0003 22.6692C23.6225 22.6692 23.3059 22.5414 23.0503 22.2859C22.7948 22.0303 22.667 21.7136 22.667 21.3359ZM28.0003 10.6692H3.86699C3.53366 10.6692 3.25033 10.5525 3.01699 10.3192C2.78366 10.0859 2.66699 9.80252 2.66699 9.46919V8.73586C2.66699 8.49141 2.7281 8.2803 2.85033 8.10252C2.97255 7.92474 3.13366 7.7803 3.33366 7.66919L14.8003 1.93586C15.1781 1.75808 15.5781 1.66919 16.0003 1.66919C16.4225 1.66919 16.8225 1.75808 17.2003 1.93586L28.6003 7.63586C28.8448 7.74697 29.0281 7.91363 29.1503 8.13586C29.2725 8.35808 29.3337 8.59141 29.3337 8.83586V9.33586C29.3337 9.71363 29.2059 10.0303 28.9503 10.2859C28.6948 10.5414 28.3781 10.6692 28.0003 10.6692ZM8.60033 8.00252H23.4003L16.0003 4.33586L8.60033 8.00252Z" fill="#5784E6"/>
</svg>
