<svg width="32" height="33" viewBox="0 0 32 33" fill="none" xmlns="http://www.w3.org/2000/svg">
<path d="M8.00033 24.2525H16.0003V23.6525C16.0003 23.2747 15.8948 22.9247 15.6837 22.6025C15.4725 22.2803 15.1781 22.0303 14.8003 21.8525C14.3559 21.6525 13.9059 21.5025 13.4503 21.4025C12.9948 21.3025 12.5114 21.2525 12.0003 21.2525C11.4892 21.2525 11.0059 21.3025 10.5503 21.4025C10.0948 21.5025 9.64477 21.6525 9.20033 21.8525C8.82255 22.0303 8.5281 22.2803 8.31699 22.6025C8.10588 22.9247 8.00033 23.2747 8.00033 23.6525V24.2525ZM19.667 22.2525H23.0003C23.2892 22.2525 23.5281 22.1581 23.717 21.9692C23.9059 21.7803 24.0003 21.5414 24.0003 21.2525C24.0003 20.9636 23.9059 20.7247 23.717 20.5359C23.5281 20.347 23.2892 20.2525 23.0003 20.2525H19.667C19.3781 20.2525 19.1392 20.347 18.9503 20.5359C18.7614 20.7247 18.667 20.9636 18.667 21.2525C18.667 21.5414 18.7614 21.7803 18.9503 21.9692C19.1392 22.1581 19.3781 22.2525 19.667 22.2525ZM12.0003 20.2525C12.5559 20.2525 13.0281 20.0581 13.417 19.6692C13.8059 19.2803 14.0003 18.8081 14.0003 18.2525C14.0003 17.697 13.8059 17.2247 13.417 16.8359C13.0281 16.447 12.5559 16.2525 12.0003 16.2525C11.4448 16.2525 10.9725 16.447 10.5837 16.8359C10.1948 17.2247 10.0003 17.697 10.0003 18.2525C10.0003 18.8081 10.1948 19.2803 10.5837 19.6692C10.9725 20.0581 11.4448 20.2525 12.0003 20.2525ZM19.667 18.2525H23.0003C23.2892 18.2525 23.5281 18.1581 23.717 17.9692C23.9059 17.7803 24.0003 17.5414 24.0003 17.2525C24.0003 16.9636 23.9059 16.7247 23.717 16.5359C23.5281 16.347 23.2892 16.2525 23.0003 16.2525H19.667C19.3781 16.2525 19.1392 16.347 18.9503 16.5359C18.7614 16.7247 18.667 16.9636 18.667 17.2525C18.667 17.5414 18.7614 17.7803 18.9503 17.9692C19.1392 18.1581 19.3781 18.2525 19.667 18.2525ZM5.33366 29.5859C4.60033 29.5859 3.97255 29.3247 3.45033 28.8025C2.9281 28.2803 2.66699 27.6525 2.66699 26.9192V12.2525C2.66699 11.5192 2.9281 10.8914 3.45033 10.3692C3.97255 9.84697 4.60033 9.58586 5.33366 9.58586H12.0003V5.58586C12.0003 4.85252 12.2614 4.22475 12.7837 3.70252C13.3059 3.1803 13.9337 2.91919 14.667 2.91919H17.3337C18.067 2.91919 18.6948 3.1803 19.217 3.70252C19.7392 4.22475 20.0003 4.85252 20.0003 5.58586V9.58586H26.667C27.4003 9.58586 28.0281 9.84697 28.5503 10.3692C29.0725 10.8914 29.3337 11.5192 29.3337 12.2525V26.9192C29.3337 27.6525 29.0725 28.2803 28.5503 28.8025C28.0281 29.3247 27.4003 29.5859 26.667 29.5859H5.33366ZM5.33366 26.9192H26.667V12.2525H20.0003C20.0003 12.9859 19.7392 13.6136 19.217 14.1359C18.6948 14.6581 18.067 14.9192 17.3337 14.9192H14.667C13.9337 14.9192 13.3059 14.6581 12.7837 14.1359C12.2614 13.6136 12.0003 12.9859 12.0003 12.2525H5.33366V26.9192ZM14.667 12.2525H17.3337V5.58586H14.667V12.2525Z" fill="#5784E6"/>
</svg>
