<svg width="32" height="33" viewBox="0 0 32 33" fill="none" xmlns="http://www.w3.org/2000/svg">
<path d="M8.0666 24.2025C7.62216 23.958 7.27771 23.6303 7.03327 23.2191C6.78882 22.808 6.6666 22.3469 6.6666 21.8358V15.4358L3.4666 13.6691C3.22216 13.5358 3.04438 13.3691 2.93327 13.1691C2.82216 12.9691 2.7666 12.7469 2.7666 12.5025C2.7666 12.258 2.82216 12.0358 2.93327 11.8358C3.04438 11.6358 3.22216 11.4691 3.4666 11.3358L14.7333 5.20247C14.9333 5.09136 15.1388 5.00803 15.3499 4.95247C15.561 4.89692 15.7777 4.86914 15.9999 4.86914C16.2222 4.86914 16.4388 4.89692 16.6499 4.95247C16.861 5.00803 17.0666 5.09136 17.2666 5.20247L29.9666 12.1358C30.1888 12.2469 30.361 12.408 30.4833 12.6191C30.6055 12.8303 30.6666 13.058 30.6666 13.3025V21.8358C30.6666 22.2136 30.5388 22.5303 30.2833 22.7858C30.0277 23.0414 29.711 23.1691 29.3333 23.1691C28.9555 23.1691 28.6388 23.0414 28.3833 22.7858C28.1277 22.5303 27.9999 22.2136 27.9999 21.8358V13.9691L25.3333 15.4358V21.8358C25.3333 22.3469 25.211 22.808 24.9666 23.2191C24.7222 23.6303 24.3777 23.958 23.9333 24.2025L17.2666 27.8025C17.0666 27.9136 16.861 27.9969 16.6499 28.0525C16.4388 28.108 16.2222 28.1358 15.9999 28.1358C15.7777 28.1358 15.561 28.108 15.3499 28.0525C15.1388 27.9969 14.9333 27.9136 14.7333 27.8025L8.0666 24.2025ZM15.9999 17.4358L25.1333 12.5025L15.9999 7.56914L6.8666 12.5025L15.9999 17.4358ZM15.9999 25.4691L22.6666 21.8691V16.8358L17.2999 19.8025C17.0999 19.9136 16.8888 19.9969 16.6666 20.0525C16.4444 20.108 16.2222 20.1358 15.9999 20.1358C15.7777 20.1358 15.5555 20.108 15.3333 20.0525C15.111 19.9969 14.8999 19.9136 14.6999 19.8025L9.33327 16.8358V21.8691L15.9999 25.4691Z" fill="#5784E6"/>
</svg>
