<svg width="32" height="32" viewBox="0 0 32 32" fill="none" xmlns="http://www.w3.org/2000/svg">
<path d="M13.333 30.669C13.333 29.9357 13.5941 29.3079 14.1163 28.7857C14.6386 28.2635 15.2663 28.0024 15.9997 28.0024V21.069C15.733 20.9579 15.483 20.8301 15.2497 20.6857C15.0163 20.5413 14.7997 20.3801 14.5997 20.2024L11.6663 22.069C11.3552 22.2468 11.0163 22.3635 10.6497 22.419C10.283 22.4746 9.91079 22.4468 9.53301 22.3357L3.53301 20.6357C2.88856 20.4579 2.36079 20.0968 1.94967 19.5524C1.53856 19.0079 1.33301 18.3913 1.33301 17.7024C1.33301 16.8579 1.62745 16.1413 2.21634 15.5524C2.80523 14.9635 3.5219 14.669 4.36634 14.669H14.3997C14.6219 14.4246 14.8663 14.2135 15.133 14.0357C15.3997 13.8579 15.6886 13.7135 15.9997 13.6024V9.0357C15.9997 8.65792 16.0719 8.30236 16.2163 7.96903C16.3608 7.63569 16.5663 7.34681 16.833 7.10236L21.3997 2.8357C21.9108 2.34681 22.5052 2.06903 23.183 2.00236C23.8608 1.9357 24.4886 2.08014 25.0663 2.4357C25.7775 2.88014 26.2386 3.50792 26.4497 4.31903C26.6608 5.13014 26.5441 5.89125 26.0997 6.60236L20.7997 15.369C20.9552 15.6357 21.0719 15.9246 21.1497 16.2357C21.2275 16.5468 21.2775 16.869 21.2997 17.2024L24.8997 18.069C25.2552 18.1579 25.5775 18.3135 25.8663 18.5357C26.1552 18.7579 26.3886 19.0246 26.5663 19.3357L29.5997 24.8024C29.933 25.4024 30.0552 26.0357 29.9663 26.7024C29.8775 27.369 29.5886 27.9468 29.0997 28.4357C28.4997 29.0357 27.783 29.3357 26.9497 29.3357C26.1163 29.3357 25.3997 29.0357 24.7997 28.4357L18.6663 22.3024V28.0024C19.3997 28.0024 20.0275 28.2635 20.5497 28.7857C21.0719 29.3079 21.333 29.9357 21.333 30.669H13.333ZM6.66634 6.66903C6.28856 6.66903 5.9719 6.54125 5.71634 6.2857C5.46079 6.03014 5.33301 5.71347 5.33301 5.3357C5.33301 4.95792 5.46079 4.64125 5.71634 4.3857C5.9719 4.13014 6.28856 4.00236 6.66634 4.00236H11.9997C12.3775 4.00236 12.6941 4.13014 12.9497 4.3857C13.2052 4.64125 13.333 4.95792 13.333 5.3357C13.333 5.71347 13.2052 6.03014 12.9497 6.2857C12.6941 6.54125 12.3775 6.66903 11.9997 6.66903H6.66634ZM18.6663 9.0357V13.6024C18.6886 13.6024 18.7052 13.6079 18.7163 13.619C18.7275 13.6301 18.7441 13.6357 18.7663 13.6357L23.833 5.20236C23.8775 5.11347 23.8886 5.01903 23.8663 4.91903C23.8441 4.81903 23.7886 4.74681 23.6997 4.70236C23.633 4.65792 23.5497 4.64681 23.4497 4.66903C23.3497 4.69125 23.2775 4.72458 23.233 4.76903L18.6663 9.0357ZM2.66634 12.0024C2.28856 12.0024 1.9719 11.8746 1.71634 11.619C1.46079 11.3635 1.33301 11.0468 1.33301 10.669C1.33301 10.2913 1.46079 9.97458 1.71634 9.71903C1.9719 9.46347 2.28856 9.3357 2.66634 9.3357H6.66634C7.04412 9.3357 7.36079 9.46347 7.61634 9.71903C7.8719 9.97458 7.99967 10.2913 7.99967 10.669C7.99967 11.0468 7.8719 11.3635 7.61634 11.619C7.36079 11.8746 7.04412 12.0024 6.66634 12.0024H2.66634ZM17.333 18.669C17.7108 18.669 18.0275 18.5413 18.283 18.2857C18.5386 18.0301 18.6663 17.7135 18.6663 17.3357C18.6663 16.9579 18.5386 16.6413 18.283 16.3857C18.0275 16.1301 17.7108 16.0024 17.333 16.0024C16.9552 16.0024 16.6386 16.1301 16.383 16.3857C16.1275 16.6413 15.9997 16.9579 15.9997 17.3357C15.9997 17.7135 16.1275 18.0301 16.383 18.2857C16.6386 18.5413 16.9552 18.669 17.333 18.669ZM10.2997 19.8024L13.3997 17.9357C13.3775 17.8246 13.3663 17.7246 13.3663 17.6357V17.3357H4.36634C4.25523 17.3357 4.16634 17.369 4.09967 17.4357C4.03301 17.5024 3.99967 17.5913 3.99967 17.7024C3.99967 17.7913 4.0219 17.869 4.06634 17.9357C4.11079 18.0024 4.17745 18.0468 4.26634 18.069L10.2997 19.8024ZM24.2663 20.6357L20.4663 19.769C20.4219 19.8135 20.3775 19.869 20.333 19.9357C20.2886 20.0024 20.2441 20.0579 20.1997 20.1024L26.6997 26.569C26.7663 26.6357 26.8552 26.669 26.9663 26.669C27.0775 26.669 27.1663 26.6357 27.233 26.569C27.2997 26.5024 27.3386 26.4301 27.3497 26.3524C27.3608 26.2746 27.3441 26.1913 27.2997 26.1024L24.2663 20.6357ZM5.33301 28.0024C4.95523 28.0024 4.63856 27.8746 4.38301 27.619C4.12745 27.3635 3.99967 27.0468 3.99967 26.669C3.99967 26.2913 4.12745 25.9746 4.38301 25.719C4.63856 25.4635 4.95523 25.3357 5.33301 25.3357H9.33301C9.71079 25.3357 10.0275 25.4635 10.283 25.719C10.5386 25.9746 10.6663 26.2913 10.6663 26.669C10.6663 27.0468 10.5386 27.3635 10.283 27.619C10.0275 27.8746 9.71079 28.0024 9.33301 28.0024H5.33301Z" fill="#5784E6"/>
</svg>
