<svg width="32" height="33" viewBox="0 0 32 33" fill="none" xmlns="http://www.w3.org/2000/svg">
<path d="M7.99967 27.419C6.88856 27.419 5.94412 27.0301 5.16634 26.2524C4.38856 25.4746 3.99967 24.5301 3.99967 23.419H2.66634C2.28856 23.419 1.9719 23.2912 1.71634 23.0357C1.46079 22.7801 1.33301 22.4635 1.33301 22.0857V8.75236C1.33301 8.01903 1.59412 7.39125 2.11634 6.86903C2.63856 6.3468 3.26634 6.08569 3.99967 6.08569H19.9997C20.733 6.08569 21.3608 6.3468 21.883 6.86903C22.4052 7.39125 22.6663 8.01903 22.6663 8.75236V11.419H25.333C25.7552 11.419 26.1552 11.5135 26.533 11.7024C26.9108 11.8912 27.2219 12.1524 27.4663 12.4857L30.3997 16.3857C30.4886 16.4968 30.5552 16.619 30.5997 16.7524C30.6441 16.8857 30.6663 17.0301 30.6663 17.1857V22.0857C30.6663 22.4635 30.5386 22.7801 30.283 23.0357C30.0275 23.2912 29.7108 23.419 29.333 23.419H27.9997C27.9997 24.5301 27.6108 25.4746 26.833 26.2524C26.0552 27.0301 25.1108 27.419 23.9997 27.419C22.8886 27.419 21.9441 27.0301 21.1663 26.2524C20.3886 25.4746 19.9997 24.5301 19.9997 23.419H11.9997C11.9997 24.5301 11.6108 25.4746 10.833 26.2524C10.0552 27.0301 9.11079 27.419 7.99967 27.419ZM7.99967 24.7524C8.37745 24.7524 8.69412 24.6246 8.94967 24.369C9.20523 24.1135 9.33301 23.7968 9.33301 23.419C9.33301 23.0412 9.20523 22.7246 8.94967 22.469C8.69412 22.2135 8.37745 22.0857 7.99967 22.0857C7.6219 22.0857 7.30523 22.2135 7.04967 22.469C6.79412 22.7246 6.66634 23.0412 6.66634 23.419C6.66634 23.7968 6.79412 24.1135 7.04967 24.369C7.30523 24.6246 7.6219 24.7524 7.99967 24.7524ZM3.99967 20.7524H5.06634C5.44412 20.3524 5.87745 20.0301 6.36634 19.7857C6.85523 19.5412 7.39967 19.419 7.99967 19.419C8.59967 19.419 9.14412 19.5412 9.63301 19.7857C10.1219 20.0301 10.5552 20.3524 10.933 20.7524H19.9997V8.75236H3.99967V20.7524ZM23.9997 24.7524C24.3775 24.7524 24.6941 24.6246 24.9497 24.369C25.2052 24.1135 25.333 23.7968 25.333 23.419C25.333 23.0412 25.2052 22.7246 24.9497 22.469C24.6941 22.2135 24.3775 22.0857 23.9997 22.0857C23.6219 22.0857 23.3052 22.2135 23.0497 22.469C22.7941 22.7246 22.6663 23.0412 22.6663 23.419C22.6663 23.7968 22.7941 24.1135 23.0497 24.369C23.3052 24.6246 23.6219 24.7524 23.9997 24.7524ZM22.6663 18.0857H28.333L25.333 14.0857H22.6663V18.0857Z" fill="#5784E6"/>
</svg>
