<svg width="88" height="24" viewBox="0 0 88 24" fill="none" xmlns="http://www.w3.org/2000/svg">
<g clip-path="url(#clip0_28_262)">
<mask id="mask0_28_262" style="mask-type:luminance" maskUnits="userSpaceOnUse" x="0" y="0" width="88" height="24">
<path d="M88 0H0V24H88V0Z" fill="white"/>
</mask>
<g mask="url(#mask0_28_262)">
<path d="M39.3295 10.5605L50.3396 0H39.5314L33.9322 5.37063L39.3295 10.5605Z" fill="url(#paint0_linear_28_262)"/>
<path d="M39.3295 13.4399L50.3396 24.0004H39.5314L33.9322 18.6297L39.3295 13.4399Z" fill="url(#paint1_linear_28_262)"/>
<path d="M27.0814 12.7422L15.3578 23.9999H26.1661L37.903 12.7422H27.0814Z" fill="url(#paint2_linear_28_262)"/>
<path d="M37.903 11.2577L26.1661 0H15.3578L27.0814 11.2577H37.903Z" fill="url(#paint3_linear_28_262)"/>
<path d="M56.5846 13.8012C55.7636 16.0476 53.8658 17.5968 51.0931 17.5968C46.9205 17.5968 44.9688 14.5113 44.9688 11.8518C44.9688 9.37306 46.8532 6.26169 50.9988 6.26169C53.7985 6.26169 55.8444 7.8367 56.5846 10.1347H53.5831C53.0582 9.1536 52.1295 8.67585 50.9584 8.67585C48.8318 8.67585 47.6339 10.1735 47.6339 11.8776C47.6339 13.6979 48.9126 15.1568 50.9584 15.1568C51.4161 15.1568 52.8429 15.0793 53.5831 13.7754H56.5846V13.8012Z" fill="#005BAA"/>
<path d="M69.5064 11.9547C69.5064 15.0532 67.0029 17.5964 63.6245 17.5964C60.2461 17.5964 57.7426 15.0402 57.7426 11.9547C57.7426 8.84336 60.2192 6.27423 63.6245 6.27423C67.0298 6.26132 69.5064 8.84336 69.5064 11.9547ZM60.3941 11.9547C60.3941 13.6847 61.6593 15.1823 63.6245 15.1823C65.5896 15.1823 66.8414 13.6847 66.8414 11.9547C66.8414 10.2248 65.6031 8.68842 63.6245 8.68842C61.6324 8.68842 60.3941 10.2248 60.3941 11.9547Z" fill="#005BAA"/>
<path d="M71.3233 6.41635H73.7731V7.74613H73.8136C74.5942 6.68747 75.8596 6.41635 76.6934 6.41635C77.8112 6.41635 79.1702 6.88112 79.9374 8.06886C80.5839 7.22971 81.6739 6.41635 83.4772 6.41635C86.1825 6.41635 88 8.18505 88 11.1802V17.4029H85.3352V11.7612C85.3352 10.8058 85.2138 8.8435 83.1543 8.8435C81.1083 8.8435 80.9877 10.8058 80.9877 11.7612V17.4158H78.3356V11.7612C78.3356 10.8058 78.215 8.8435 76.1555 8.8435C74.1095 8.8435 73.9881 10.8058 73.9881 11.7612V17.4158H71.3233V6.41635Z" fill="#005BAA"/>
<path d="M14.5773 2.14289H11.2661C10.9835 2.14289 10.7547 1.92342 10.7547 1.6523C10.7547 1.38119 10.9835 1.16171 11.2661 1.16171H14.5773C14.8599 1.16171 15.0887 1.38119 15.0887 1.6523C15.0887 1.92342 14.8599 2.14289 14.5773 2.14289Z" fill="#005BAA"/>
<path d="M17.2824 4.73823H8.56048C8.27781 4.73823 8.04901 4.51876 8.04901 4.24765C8.04901 3.97654 8.27781 3.75706 8.56048 3.75706H17.2824C17.5651 3.75706 17.7939 3.97654 17.7939 4.24765C17.7939 4.51876 17.5651 4.73823 17.2824 4.73823Z" fill="#005BAA"/>
<path d="M22.6931 9.91476H3.13604C2.85339 9.91476 2.62457 9.6953 2.62457 9.42417C2.62457 9.15304 2.85339 8.93358 3.13604 8.93358H22.6931C22.9757 8.93358 23.2045 9.15304 23.2045 9.42417C23.2045 9.6953 22.9757 9.91476 22.6931 9.91476Z" fill="#005BAA"/>
<path d="M20.0419 7.3327H5.80148C5.51882 7.3327 5.29001 7.11324 5.29001 6.84214C5.29001 6.57104 5.51882 6.35156 5.80148 6.35156H20.0284C20.3111 6.35156 20.5399 6.57104 20.5399 6.84214C20.5399 7.11324 20.3111 7.3327 20.0419 7.3327Z" fill="#005BAA"/>
<path d="M25.3313 12.5101H0.511472C0.228816 12.5101 0 12.2906 0 12.0195C0 11.7484 0.228816 11.5289 0.511472 11.5289H25.3313C25.614 11.5289 25.8428 11.7484 25.8428 12.0195C25.8428 12.2906 25.614 12.5101 25.3313 12.5101Z" fill="#005BAA"/>
<path d="M14.5773 22.8639H11.2661C10.9835 22.8639 10.7547 22.6444 10.7547 22.3733C10.7547 22.1022 10.9835 21.8827 11.2661 21.8827H14.5773C14.8599 21.8827 15.0887 22.1022 15.0887 22.3733C15.0887 22.6444 14.8599 22.8639 14.5773 22.8639Z" fill="#005BAA"/>
<path d="M17.2824 20.2687H8.56048C8.27781 20.2687 8.04901 20.0493 8.04901 19.7781C8.04901 19.507 8.27781 19.2875 8.56048 19.2875H17.2824C17.5651 19.2875 17.7939 19.507 17.7939 19.7781C17.7939 20.0493 17.5651 20.2687 17.2824 20.2687Z" fill="#005BAA"/>
<path d="M22.6931 15.0921H3.13604C2.85339 15.0921 2.62457 14.8727 2.62457 14.6015C2.62457 14.3304 2.85339 14.1109 3.13604 14.1109H22.6931C22.9757 14.1109 23.2045 14.3304 23.2045 14.6015C23.2045 14.8727 22.9757 15.0921 22.6931 15.0921Z" fill="#005BAA"/>
<path d="M20.0419 17.6867H5.80148C5.51882 17.6867 5.29001 17.4672 5.29001 17.1961C5.29001 16.925 5.51882 16.7055 5.80148 16.7055H20.0284C20.3111 16.7055 20.5399 16.925 20.5399 17.1961C20.5399 17.4672 20.3111 17.6867 20.0419 17.6867Z" fill="#005BAA"/>
</g>
</g>
<defs>
<linearGradient id="paint0_linear_28_262" x1="33.9275" y1="5.27742" x2="50.3432" y2="5.27742" gradientUnits="userSpaceOnUse">
<stop stop-color="#1B4790"/>
<stop offset="1" stop-color="#1A7BBF"/>
</linearGradient>
<linearGradient id="paint1_linear_28_262" x1="33.9275" y1="18.723" x2="50.3432" y2="18.723" gradientUnits="userSpaceOnUse">
<stop stop-color="#1B4790"/>
<stop offset="1" stop-color="#1A7BBF"/>
</linearGradient>
<linearGradient id="paint2_linear_28_262" x1="15.3562" y1="18.3738" x2="37.8984" y2="18.3738" gradientUnits="userSpaceOnUse">
<stop stop-color="#F59324"/>
<stop offset="1" stop-color="#F05C2A"/>
</linearGradient>
<linearGradient id="paint3_linear_28_262" x1="15.3562" y1="5.62638" x2="37.8995" y2="5.62638" gradientUnits="userSpaceOnUse">
<stop stop-color="#F59324"/>
<stop offset="1" stop-color="#F05C2A"/>
</linearGradient>
<clipPath id="clip0_28_262">
<rect width="88" height="24" fill="white"/>
</clipPath>
</defs>
</svg>
