<svg width="34" height="33" viewBox="0 0 34 33" fill="none" xmlns="http://www.w3.org/2000/svg">
<path d="M12 27.7666C11.655 27.7666 11.375 28.0466 11.375 28.3916C11.375 28.7368 11.655 29.0166 12 29.0166C12.345 29.0166 12.625 28.7368 12.625 28.3916C12.625 28.0466 12.345 27.7666 12 27.7666Z" fill="#EFEFEF" stroke="#EFEFEF" stroke-width="0.658514"/>
<path d="M32.21 10.2434C32.207 10.2412 32.2039 10.2392 32.2009 10.237L27 6.67209V4.87619C27 4.53122 26.7202 4.25119 26.375 4.25119H23.3718L18.8062 1.07639C17.7258 0.311005 16.2742 0.311005 15.1982 1.07321L10.6274 4.25119H7.625C7.27979 4.25119 7 4.53122 7 4.87619V6.67209L1.79907 10.237C1.79614 10.239 1.79297 10.2412 1.79004 10.2434C1.28711 10.6013 1 11.1814 1 11.7724V30.6262C1 31.6406 1.82031 32.5012 2.875 32.5012H31.125C32.1804 32.5012 33 31.6399 33 30.6262V11.7724C33 11.1567 32.6926 10.5869 32.21 10.2434ZM31.75 30.5525L21.325 21.8083L31.75 12.4983V30.5525ZM2.25 12.4983L12.675 21.8083L2.25 30.5525V12.4983ZM13.6172 22.6496L14.8889 23.7854C15.4668 24.3147 16.2163 24.6059 17 24.6059C17.7837 24.6059 18.5332 24.3147 19.1111 23.7854L20.3828 22.6496L30.6382 31.2512H3.36182L13.6172 22.6496ZM31.3564 11.1738L27 15.0644V8.18747L31.3564 11.1738ZM15.9163 2.09641C16.5645 1.63718 17.4355 1.63693 18.0881 2.09934L21.1824 4.25119H12.8171L15.9163 2.09641ZM25.75 5.50119V16.1806L18.2756 22.8557C18.2734 22.8576 18.2712 22.8596 18.269 22.8615C17.5457 23.5261 16.4543 23.5261 15.731 22.8615C15.7288 22.8596 15.7268 22.8576 15.7246 22.8557L8.25 16.1806C8.25 13.7231 8.25 7.78098 8.25 5.50119H25.75ZM7 15.0644L2.64355 11.1738L7 8.18747V15.0644Z" fill="#EFEFEF" stroke="#EFEFEF" stroke-width="0.658514"/>
<path d="M22 27.7666H14.5C14.1548 27.7666 13.875 28.0466 13.875 28.3916C13.875 28.7368 14.1548 29.0166 14.5 29.0166H22C22.3452 29.0166 22.625 28.7368 22.625 28.3916C22.625 28.0466 22.3452 27.7666 22 27.7666Z" fill="#EFEFEF" stroke="#EFEFEF" stroke-width="0.658514"/>
<path d="M17 19.251C17.3452 19.251 17.625 18.9712 17.625 18.626C17.625 18.281 17.3452 18.001 17 18.001C14.5876 18.001 12.625 16.0386 12.625 13.626C12.625 11.2136 14.5876 9.25098 17 9.25098C19.4124 9.25098 21.375 11.2136 21.375 13.626V14.876C21.375 15.2207 21.0947 15.501 20.75 15.501C20.4053 15.501 20.125 15.2207 20.125 14.876V13.626C20.125 11.9031 18.7231 10.501 17 10.501C15.2769 10.501 13.875 11.9031 13.875 13.626C13.875 15.3491 15.2769 16.751 17 16.751C17.8401 16.751 18.603 16.4172 19.1653 15.8762C19.4978 16.4014 20.0837 16.751 20.75 16.751C21.7839 16.751 22.625 15.9099 22.625 14.876V13.626C22.625 10.5244 20.1016 8.00098 17 8.00098C13.8984 8.00098 11.375 10.5244 11.375 13.626C11.375 16.7278 13.8984 19.251 17 19.251ZM17 15.501C15.9661 15.501 15.125 14.6599 15.125 13.626C15.125 12.5923 15.9661 11.751 17 11.751C18.0339 11.751 18.875 12.5923 18.875 13.626C18.875 14.6599 18.0339 15.501 17 15.501Z" fill="#EFEFEF" stroke="#EFEFEF" stroke-width="0.658514"/>
</svg>
