<svg width="32" height="33" viewBox="0 0 32 33" fill="none" xmlns="http://www.w3.org/2000/svg">
<path d="M14.667 20.7525V23.4192C14.667 23.797 14.7948 24.1136 15.0503 24.3692C15.3059 24.6247 15.6225 24.7525 16.0003 24.7525C16.3781 24.7525 16.6948 24.6247 16.9503 24.3692C17.2059 24.1136 17.3337 23.797 17.3337 23.4192V20.7525H20.0003C20.3781 20.7525 20.6948 20.6247 20.9503 20.3692C21.2059 20.1136 21.3337 19.797 21.3337 19.4192C21.3337 19.0414 21.2059 18.7247 20.9503 18.4692C20.6948 18.2136 20.3781 18.0859 20.0003 18.0859H17.3337V15.4192C17.3337 15.0414 17.2059 14.7247 16.9503 14.4692C16.6948 14.2136 16.3781 14.0859 16.0003 14.0859C15.6225 14.0859 15.3059 14.2136 15.0503 14.4692C14.7948 14.7247 14.667 15.0414 14.667 15.4192V18.0859H12.0003C11.6225 18.0859 11.3059 18.2136 11.0503 18.4692C10.7948 18.7247 10.667 19.0414 10.667 19.4192C10.667 19.797 10.7948 20.1136 11.0503 20.3692C11.3059 20.6247 11.6225 20.7525 12.0003 20.7525H14.667ZM5.33366 30.0859C4.60033 30.0859 3.97255 29.8247 3.45033 29.3025C2.9281 28.7803 2.66699 28.1525 2.66699 27.4192V11.4192C2.66699 10.6859 2.9281 10.0581 3.45033 9.53586C3.97255 9.01363 4.60033 8.75252 5.33366 8.75252H10.667V6.08586C10.667 5.35252 10.9281 4.72475 11.4503 4.20252C11.9725 3.6803 12.6003 3.41919 13.3337 3.41919H18.667C19.4003 3.41919 20.0281 3.6803 20.5503 4.20252C21.0725 4.72475 21.3337 5.35252 21.3337 6.08586V8.75252H26.667C27.4003 8.75252 28.0281 9.01363 28.5503 9.53586C29.0725 10.0581 29.3337 10.6859 29.3337 11.4192V27.4192C29.3337 28.1525 29.0725 28.7803 28.5503 29.3025C28.0281 29.8247 27.4003 30.0859 26.667 30.0859H5.33366ZM5.33366 27.4192H26.667V11.4192H5.33366V27.4192ZM13.3337 8.75252H18.667V6.08586H13.3337V8.75252Z" fill="#5784E6"/>
</svg>
