<svg width="32" height="33" viewBox="0 0 32 33" fill="none" xmlns="http://www.w3.org/2000/svg">
<path d="M7.30013 28.5024C6.74457 28.5024 6.27235 28.3079 5.88346 27.9191C5.49457 27.5302 5.30013 27.0579 5.30013 26.5024C5.30013 25.9468 5.49457 25.4746 5.88346 25.0857C6.27235 24.6968 6.74457 24.5024 7.30013 24.5024H9.43346L6.03346 13.3691C5.43346 13.0357 4.93902 12.5468 4.55013 11.9024C4.16124 11.2579 3.9668 10.5691 3.9668 9.83572C3.9668 8.72461 4.35569 7.78017 5.13346 7.00239C5.91124 6.22461 6.85569 5.83572 7.9668 5.83572C8.83346 5.83572 9.60569 6.08572 10.2835 6.58572C10.9612 7.08572 11.4335 7.72461 11.7001 8.50239H15.9668V7.16906C15.9668 6.79128 16.0946 6.47461 16.3501 6.21906C16.6057 5.9635 16.9224 5.83572 17.3001 5.83572C17.5001 5.83572 17.6946 5.88017 17.8835 5.96906C18.0724 6.05795 18.2335 6.19128 18.3668 6.36906L20.6335 4.23572C20.8335 4.03572 21.0724 3.90795 21.3501 3.85239C21.6279 3.79684 21.9001 3.83572 22.1668 3.96906L27.3668 6.36906C27.6335 6.50239 27.8168 6.69684 27.9168 6.95239C28.0168 7.20795 28.0112 7.45795 27.9001 7.70239C27.7668 7.96906 27.5724 8.14128 27.3168 8.21906C27.0612 8.29684 26.8112 8.28017 26.5668 8.16906L21.7668 5.96906L18.6335 8.90239V10.7691L21.7668 13.6357L26.5668 11.4357C26.8112 11.3246 27.0668 11.3135 27.3335 11.4024C27.6001 11.4913 27.789 11.6579 27.9001 11.9024C28.0335 12.1691 28.0446 12.4246 27.9335 12.6691C27.8224 12.9135 27.6335 13.1024 27.3668 13.2357L22.1668 15.7024C21.9001 15.8357 21.6279 15.8746 21.3501 15.8191C21.0724 15.7635 20.8335 15.6357 20.6335 15.4357L18.3668 13.3024C18.2335 13.4357 18.0724 13.5579 17.8835 13.6691C17.6946 13.7802 17.5001 13.8357 17.3001 13.8357C16.9224 13.8357 16.6057 13.7079 16.3501 13.4524C16.0946 13.1968 15.9668 12.8802 15.9668 12.5024V11.1691H11.7001C11.6335 11.3468 11.5612 11.5135 11.4835 11.6691C11.4057 11.8246 11.3001 11.9913 11.1668 12.1691L17.8335 24.5024H20.6335C21.189 24.5024 21.6612 24.6968 22.0501 25.0857C22.439 25.4746 22.6335 25.9468 22.6335 26.5024C22.6335 27.0579 22.439 27.5302 22.0501 27.9191C21.6612 28.3079 21.189 28.5024 20.6335 28.5024H7.30013ZM7.9668 11.1691C8.34457 11.1691 8.66124 11.0413 8.9168 10.7857C9.17235 10.5302 9.30013 10.2135 9.30013 9.83572C9.30013 9.45795 9.17235 9.14128 8.9168 8.88572C8.66124 8.63017 8.34457 8.50239 7.9668 8.50239C7.58902 8.50239 7.27235 8.63017 7.0168 8.88572C6.76124 9.14128 6.63346 9.45795 6.63346 9.83572C6.63346 10.2135 6.76124 10.5302 7.0168 10.7857C7.27235 11.0413 7.58902 11.1691 7.9668 11.1691ZM12.1668 24.5024H14.7668L9.03346 13.8357H8.90013L12.1668 24.5024Z" fill="#5784E6"/>
</svg>
