<svg width="32" height="33" viewBox="0 0 32 33" fill="none" xmlns="http://www.w3.org/2000/svg">
<path d="M5.33366 29.5859C4.60033 29.5859 3.97255 29.3247 3.45033 28.8025C2.9281 28.2803 2.66699 27.6525 2.66699 26.9192V15.3192C2.66699 14.7859 2.81144 14.297 3.10033 13.8525C3.38921 13.4081 3.78921 13.0747 4.30033 12.8525L10.1337 10.3859C10.5781 10.2081 11.0003 10.2414 11.4003 10.4859C11.8003 10.7303 12.0003 11.097 12.0003 11.5859V12.2525L16.8337 10.3192C17.2781 10.1414 17.6948 10.1859 18.0837 10.4525C18.4725 10.7192 18.667 11.0859 18.667 11.5525V13.5859H29.3337V26.9192C29.3337 27.6525 29.0725 28.2803 28.5503 28.8025C28.0281 29.3247 27.4003 29.5859 26.667 29.5859H5.33366ZM5.33366 26.9192H26.667V16.2525H16.0003V13.5192L9.33366 16.1859V13.5859L5.33366 15.3525V26.9192ZM14.667 24.2525H17.3337V18.9192H14.667V24.2525ZM9.33366 24.2525H12.0003V18.9192H9.33366V24.2525ZM20.0003 24.2525H22.667V18.9192H20.0003V24.2525ZM29.3337 13.5859H22.667L23.867 4.08586C23.9114 3.75252 24.0559 3.47475 24.3003 3.25252C24.5448 3.0303 24.8337 2.91919 25.167 2.91919H26.8337C27.167 2.91919 27.4559 3.0303 27.7003 3.25252C27.9448 3.47475 28.0892 3.75252 28.1337 4.08586L29.3337 13.5859Z" fill="#5784E6"/>
</svg>
