<svg width="32" height="33" viewBox="0 0 32 33" fill="none" xmlns="http://www.w3.org/2000/svg">
<path d="M9.33301 29.8359C8.59967 29.8359 7.9719 29.5747 7.44967 29.0525C6.92745 28.5303 6.66634 27.9025 6.66634 27.1692C6.66634 26.4359 6.92745 25.8081 7.44967 25.2859C7.9719 24.7636 8.59967 24.5025 9.33301 24.5025C10.0663 24.5025 10.6941 24.7636 11.2163 25.2859C11.7386 25.8081 11.9997 26.4359 11.9997 27.1692C11.9997 27.9025 11.7386 28.5303 11.2163 29.0525C10.6941 29.5747 10.0663 29.8359 9.33301 29.8359ZM22.6663 29.8359C21.933 29.8359 21.3052 29.5747 20.783 29.0525C20.2608 28.5303 19.9997 27.9025 19.9997 27.1692C19.9997 26.4359 20.2608 25.8081 20.783 25.2859C21.3052 24.7636 21.933 24.5025 22.6663 24.5025C23.3997 24.5025 24.0275 24.7636 24.5497 25.2859C25.0719 25.8081 25.333 26.4359 25.333 27.1692C25.333 27.9025 25.0719 28.5303 24.5497 29.0525C24.0275 29.5747 23.3997 29.8359 22.6663 29.8359ZM8.19967 8.50252L11.3997 15.1692H20.733L24.3997 8.50252H8.19967ZM6.93301 5.83586H26.5997C27.1108 5.83586 27.4997 6.06363 27.7663 6.51919C28.033 6.97475 28.0441 7.43586 27.7997 7.90252L23.0663 16.4359C22.8219 16.8803 22.4941 17.2247 22.083 17.4692C21.6719 17.7136 21.2219 17.8359 20.733 17.8359H10.7997L9.33301 20.5025H23.9997C24.3775 20.5025 24.6941 20.6303 24.9497 20.8859C25.2052 21.1414 25.333 21.4581 25.333 21.8359C25.333 22.2136 25.2052 22.5303 24.9497 22.7859C24.6941 23.0414 24.3775 23.1692 23.9997 23.1692H9.33301C8.33301 23.1692 7.57745 22.7303 7.06634 21.8525C6.55523 20.9747 6.53301 20.1025 6.99967 19.2359L8.79967 15.9692L3.99967 5.83586H2.66634C2.28856 5.83586 1.9719 5.70808 1.71634 5.45252C1.46079 5.19697 1.33301 4.8803 1.33301 4.50252C1.33301 4.12475 1.46079 3.80808 1.71634 3.55252C1.9719 3.29697 2.28856 3.16919 2.66634 3.16919H4.83301C5.07745 3.16919 5.31079 3.23586 5.53301 3.36919C5.75523 3.50252 5.9219 3.69141 6.03301 3.93586L6.93301 5.83586Z" fill="#5784E6"/>
</svg>
