<svg width="32" height="33" viewBox="0 0 32 33" fill="none" xmlns="http://www.w3.org/2000/svg">
<path d="M31.3734 1.08642C30.8586 0.542902 30.1269 0.361776 29.4637 0.613623L1.32695 11.3012C0.56014 11.5925 0.0401392 12.3812 0.00220171 13.3104C-0.0356733 14.2398 0.417765 15.0813 1.15739 15.4543L8.11583 18.9624C8.14977 19.1439 10.1473 29.8196 10.2153 30.1825C10.3025 30.6486 10.5078 31.0638 10.9427 31.1915C11.3826 31.3206 11.6935 31.0436 12.0217 30.7604C12.2044 30.6028 17.1855 26.305 17.1855 26.305L23.2223 31.9973C23.5739 32.329 24.0037 32.502 24.4418 32.502C24.6505 32.5019 24.8611 32.4627 25.066 32.3826C25.7013 32.1344 26.1723 31.5368 26.3259 30.7843L31.9488 3.23718C32.1086 2.45398 31.8882 1.62995 31.3734 1.08642ZM12.4715 20.9727C12.4681 20.9821 12.4647 20.9926 12.4615 21.0053L11.2975 25.6914L9.99852 18.7492L18.9308 13.0306L12.6858 20.5549C12.5874 20.6735 12.515 20.8168 12.4715 20.9727ZM12.841 27.3481L13.3697 25.2196L13.8753 23.1837L15.6873 24.8923L12.841 27.3481ZM30.1193 2.74126L24.4965 30.2884C24.4937 30.3021 24.4899 30.321 24.4624 30.3317C24.4352 30.3423 24.4219 30.3302 24.4125 30.3212L17.8068 24.0925C17.8067 24.0924 17.8065 24.0922 17.8063 24.092L14.7458 21.2061L24.5785 9.35924C24.8996 8.97228 24.9271 8.37302 24.6432 7.94919C24.3591 7.52529 23.849 7.40423 23.4429 7.66436L8.88346 16.9856L1.91077 13.4702C1.88952 13.4595 1.87783 13.4535 1.87952 13.4121C1.8812 13.3709 1.89333 13.3662 1.91533 13.3578L30.0521 2.67032C30.0657 2.66521 30.0811 2.6593 30.1037 2.68307C30.1264 2.70698 30.1226 2.72513 30.1193 2.74126Z" fill="#EFEFEF"/>
</svg>
