<svg width="47" height="33" viewBox="0 0 47 33" fill="none" xmlns="http://www.w3.org/2000/svg">
<path d="M44.0617 32.5016H38.1864C37.2828 32.5041 36.4286 32.0187 35.8728 31.1871L30.1445 22.6589C29.8874 22.2755 29.4506 22.124 29.0558 22.2822C28.6613 22.44 28.3956 22.8719 28.3942 23.3586V26.7872C28.3942 29.9445 25.7624 32.5016 22.5189 32.5016C21.2509 32.515 20.0062 32.1036 18.9325 31.316C10.707 25.1729 5.12541 17.4161 0.278585 5.38781C-0.148506 4.32644 -0.0810892 3.08385 0.457168 2.09363C0.995425 1.10341 1.92993 0.503256 2.93473 0.502H8.81001C9.9855 0.498652 11.0495 1.31351 11.5149 2.57326L12.1758 4.37331C13.1745 7.07737 14.5153 9.59142 16.1541 11.8305C16.2075 11.8975 16.2836 11.9343 16.3621 11.9305C16.4342 11.9385 16.5063 11.9104 16.5597 11.8531C16.6135 11.7962 16.644 11.715 16.6436 11.6305V7.15898C15.2996 6.59858 14.4956 4.99188 14.7369 3.35045C14.9783 1.70901 16.1957 0.507441 17.6229 0.502H25.4565C27.0788 0.502 28.3942 2.03713 28.3942 3.93052V11.9305C28.3949 12.4407 28.6854 12.8885 29.106 13.0279C29.5266 13.1673 29.9752 12.9643 30.2058 12.5303L35.677 2.14469C36.2073 1.11974 37.1605 0.495722 38.1864 0.502H44.0617C45.1472 0.502419 46.1437 1.20177 46.6537 2.32005C47.1636 3.43834 47.1034 4.79393 46.4973 5.84483L40.3284 15.8303C40.0791 16.2308 40.0791 16.7728 40.3284 17.1733L46.4486 27.073C47.0912 28.1176 47.179 29.4942 46.6759 30.6384C46.1728 31.7826 45.1633 32.5016 44.0617 32.5016ZM29.3735 19.9301C30.2772 19.928 31.131 20.4131 31.6868 21.2447L37.4151 29.7729C37.6001 30.0512 37.8845 30.2148 38.1864 30.2157H44.0617C44.4304 30.2174 44.7685 29.9767 44.9363 29.5938C45.1045 29.2104 45.0737 28.75 44.8571 28.4014L38.7372 18.5017C37.9957 17.3035 37.9957 15.6859 38.7372 14.4877L44.894 4.53068C44.9909 4.35071 45.0418 4.14271 45.0407 3.93052C45.0407 3.29939 44.6025 2.78754 44.0617 2.78754H38.1864C37.8468 2.78796 37.532 2.99345 37.3541 3.33036L31.8826 13.7159C31.1977 15.0293 29.8472 15.6499 28.5789 15.2339C27.3105 14.8183 26.4348 13.4678 26.4359 11.9305V3.93052C26.4359 3.29939 25.9973 2.78754 25.4565 2.78754H17.6229C17.0818 2.78754 16.6436 3.29939 16.6436 3.93052C16.6436 4.56165 17.0818 5.0735 17.6229 5.0735H18.6019V11.6305C18.5908 12.7148 18.0074 13.6787 17.1349 14.0533C16.2628 14.4274 15.2831 14.134 14.6727 13.3163C12.9088 10.9052 11.4644 8.19901 10.3889 5.28778L9.71547 3.48772C9.56235 3.06251 9.20519 2.78628 8.81001 2.78754H2.93473C2.60051 2.78963 2.29033 2.99052 2.11174 3.32032C1.93316 3.65011 1.91129 4.06319 2.05329 4.41642C6.79038 16.1731 11.9922 23.416 19.9972 29.4017C20.7557 29.9436 21.6296 30.2261 22.5189 30.2157C24.673 30.2157 26.4359 28.673 26.4359 26.7872V23.3586C26.4359 21.4653 27.7509 19.9301 29.3735 19.9301Z" fill="#EFEFEF"/>
</svg>
